<svg xmlns="http://www.w3.org/2000/svg" xmlns:xlink="http://www.w3.org/1999/xlink" width="500" zoomAndPan="magnify" viewBox="0 0 375 374.999991" height="500" preserveAspectRatio="xMidYMid meet" version="1.0"><defs><g/></defs><g fill="#ffffff" fill-opacity="1"><g transform="translate(26.828143, 372.628526)"><g><path d="M 39.03125 -102.78125 L 121.640625 -312.21875 C 121.640625 -312.21875 122.722656 -315.035156 124.890625 -320.671875 C 127.054688 -326.316406 129.546875 -332.820312 132.359375 -340.1875 C 135.179688 -347.5625 137.785156 -354.066406 140.171875 -359.703125 C 142.554688 -365.347656 143.75 -368.171875 143.75 -368.171875 C 145.050781 -369.035156 146.351562 -369.898438 147.65625 -370.765625 C 148.957031 -371.628906 150.472656 -372.0625 152.203125 -372.0625 C 154.804688 -372.0625 157.84375 -368.378906 161.3125 -361.015625 L 271.890625 -112.53125 C 279.265625 -96.050781 288.476562 -77.507812 299.53125 -56.90625 C 310.59375 -36.3125 322.195312 -17.773438 334.34375 -1.296875 L 334.34375 0 L 256.9375 0 L 224.40625 -74.15625 L 85.859375 -74.15625 L 57.890625 0 L -13.015625 0 L -13.015625 -1.296875 C -0.429688 -17.773438 9.867188 -34.90625 17.890625 -52.6875 C 25.910156 -70.46875 32.957031 -87.164062 39.03125 -102.78125 Z M 150.265625 -243.921875 L 102.78125 -117.078125 L 206.203125 -117.078125 L 151.5625 -243.921875 Z M 150.265625 -243.921875 "/></g></g></g></svg>