<svg xmlns="http://www.w3.org/2000/svg" xmlns:xlink="http://www.w3.org/1999/xlink" width="1500" zoomAndPan="magnify" viewBox="0 0 1125 149.999998" height="200" preserveAspectRatio="xMidYMid meet" version="1.0"><defs><g/></defs><g fill="#bd2d2d" fill-opacity="1"><g transform="translate(1.078134, 141.19408)"><g><path d="M 84.1875 -132.796875 L 93.90625 -115.71875 C 94.539062 -114.769531 94.972656 -113.820312 95.203125 -112.875 C 95.441406 -111.925781 95.5625 -111.132812 95.5625 -110.5 C 95.5625 -109.394531 95.164062 -108.722656 94.375 -108.484375 C 93.59375 -108.253906 92.882812 -107.976562 92.25 -107.65625 C 88.925781 -111.132812 84.5 -113.582031 78.96875 -115 C 73.4375 -116.425781 68.378906 -117.140625 63.796875 -117.140625 L 58.8125 -117.140625 L 58.8125 -13.515625 C 58.8125 -10.359375 59.40625 -7.828125 60.59375 -5.921875 C 61.78125 -4.023438 62.960938 -2.640625 64.140625 -1.765625 C 65.328125 -0.898438 65.921875 -0.46875 65.921875 -0.46875 L 65.921875 0 L 32.015625 0 L 32.015625 -0.46875 C 32.015625 -0.46875 32.609375 -0.898438 33.796875 -1.765625 C 34.984375 -2.640625 36.164062 -4.023438 37.34375 -5.921875 C 38.53125 -7.828125 39.125 -10.359375 39.125 -13.515625 L 39.125 -117.140625 L 34.140625 -117.140625 C 29.722656 -117.140625 24.707031 -116.425781 19.09375 -115 C 13.476562 -113.582031 9.007812 -111.132812 5.6875 -107.65625 C 5.0625 -107.976562 4.351562 -108.253906 3.5625 -108.484375 C 2.769531 -108.722656 2.375 -109.394531 2.375 -110.5 C 2.375 -111.132812 2.488281 -111.925781 2.71875 -112.875 C 2.957031 -113.820312 3.394531 -114.769531 4.03125 -115.71875 L 13.75 -132.796875 Z M 84.1875 -132.796875 "/></g></g></g><g fill="#bd2d2d" fill-opacity="1"><g transform="translate(99.014732, 141.19408)"><g><path d="M 108.140625 -0.46875 L 108.140625 0 L 77.546875 0 L 77.546875 -0.46875 C 77.546875 -0.46875 78.019531 -1.257812 78.96875 -2.84375 C 79.914062 -4.425781 80.820312 -6.363281 81.6875 -8.65625 C 82.5625 -10.945312 83 -13.117188 83 -15.171875 L 83 -60.234375 L 36.28125 -60.234375 L 36.28125 -15.171875 C 36.28125 -13.117188 36.753906 -10.945312 37.703125 -8.65625 C 38.648438 -6.363281 39.554688 -4.425781 40.421875 -2.84375 C 41.296875 -1.257812 41.734375 -0.46875 41.734375 -0.46875 L 41.734375 0 L 11.140625 0 L 11.140625 -0.46875 C 11.140625 -0.46875 11.613281 -1.257812 12.5625 -2.84375 C 13.507812 -4.425781 14.414062 -6.363281 15.28125 -8.65625 C 16.15625 -10.945312 16.59375 -13.117188 16.59375 -15.171875 L 16.59375 -119.28125 C 16.59375 -122.445312 16 -124.976562 14.8125 -126.875 C 13.632812 -128.769531 12.453125 -130.148438 11.265625 -131.015625 C 10.078125 -131.890625 9.484375 -132.328125 9.484375 -132.328125 L 9.484375 -132.796875 L 43.390625 -132.796875 L 43.390625 -132.328125 C 43.390625 -132.328125 42.796875 -131.890625 41.609375 -131.015625 C 40.429688 -130.148438 39.25 -128.769531 38.0625 -126.875 C 36.875 -124.976562 36.28125 -122.445312 36.28125 -119.28125 L 36.28125 -75.890625 L 83 -75.890625 L 83 -119.28125 C 83 -122.445312 82.40625 -124.976562 81.21875 -126.875 C 80.03125 -128.769531 78.84375 -130.148438 77.65625 -131.015625 C 76.476562 -131.890625 75.890625 -132.328125 75.890625 -132.328125 L 75.890625 -132.796875 L 109.796875 -132.796875 L 109.796875 -132.328125 C 109.796875 -132.328125 109.203125 -131.890625 108.015625 -131.015625 C 106.828125 -130.148438 105.640625 -128.769531 104.453125 -126.875 C 103.273438 -124.976562 102.6875 -122.445312 102.6875 -119.28125 L 102.6875 -15.171875 C 102.6875 -13.117188 103.160156 -10.945312 104.109375 -8.65625 C 105.054688 -6.363281 105.960938 -4.425781 106.828125 -2.84375 C 107.703125 -1.257812 108.140625 -0.46875 108.140625 -0.46875 Z M 108.140625 -0.46875 "/></g></g></g><g fill="#bd2d2d" fill-opacity="1"><g transform="translate(218.293392, 141.19408)"><g><path d="M 91.296875 -17.078125 L 81.578125 0 L 11.140625 0 L 11.140625 -0.46875 C 11.140625 -0.46875 11.613281 -1.257812 12.5625 -2.84375 C 13.507812 -4.425781 14.414062 -6.363281 15.28125 -8.65625 C 16.15625 -10.945312 16.59375 -13.117188 16.59375 -15.171875 L 16.59375 -119.28125 C 16.59375 -122.445312 16 -124.976562 14.8125 -126.875 C 13.632812 -128.769531 12.453125 -130.148438 11.265625 -131.015625 C 10.078125 -131.890625 9.484375 -132.328125 9.484375 -132.328125 L 9.484375 -132.796875 L 71.140625 -132.796875 L 80.859375 -115.71875 C 81.492188 -114.769531 81.929688 -113.820312 82.171875 -112.875 C 82.410156 -111.925781 82.53125 -111.132812 82.53125 -110.5 C 82.53125 -109.394531 82.132812 -108.722656 81.34375 -108.484375 C 80.550781 -108.253906 79.835938 -107.976562 79.203125 -107.65625 C 75.878906 -111.132812 71.453125 -113.582031 65.921875 -115 C 60.390625 -116.425781 55.332031 -117.140625 50.75 -117.140625 L 36.28125 -117.140625 L 36.28125 -74.9375 L 61.1875 -74.9375 C 63.238281 -74.9375 65.445312 -75.289062 67.8125 -76 C 70.1875 -76.71875 72.203125 -77.429688 73.859375 -78.140625 C 75.523438 -78.847656 76.359375 -79.203125 76.359375 -79.203125 L 76.359375 -55.015625 C 76.359375 -55.015625 75.523438 -55.367188 73.859375 -56.078125 C 72.203125 -56.796875 70.1875 -57.507812 67.8125 -58.21875 C 65.445312 -58.925781 63.238281 -59.28125 61.1875 -59.28125 L 36.28125 -59.28125 L 36.28125 -15.65625 L 61.1875 -15.65625 C 65.769531 -15.65625 70.828125 -16.363281 76.359375 -17.78125 C 81.890625 -19.207031 86.316406 -21.660156 89.640625 -25.140625 C 90.273438 -24.816406 90.984375 -24.535156 91.765625 -24.296875 C 92.554688 -24.066406 92.953125 -23.398438 92.953125 -22.296875 C 92.953125 -21.660156 92.832031 -20.867188 92.59375 -19.921875 C 92.363281 -18.972656 91.929688 -18.023438 91.296875 -17.078125 Z M 91.296875 -17.078125 "/></g></g></g><g fill="#bd2d2d" fill-opacity="1"><g transform="translate(313.621481, 141.19408)"><g/></g></g><g fill="#bd2d2d" fill-opacity="1"><g transform="translate(384.761843, 141.19408)"><g><path d="M 14.234375 -37.46875 L 44.34375 -113.828125 C 44.34375 -113.828125 44.738281 -114.851562 45.53125 -116.90625 C 46.320312 -118.96875 47.226562 -121.34375 48.25 -124.03125 C 49.28125 -126.71875 50.226562 -129.085938 51.09375 -131.140625 C 51.96875 -133.191406 52.40625 -134.21875 52.40625 -134.21875 C 52.882812 -134.539062 53.359375 -134.859375 53.828125 -135.171875 C 54.304688 -135.484375 54.859375 -135.640625 55.484375 -135.640625 C 56.429688 -135.640625 57.539062 -134.296875 58.8125 -131.609375 L 99.125 -41.03125 C 101.8125 -35.019531 105.171875 -28.257812 109.203125 -20.75 C 113.234375 -13.238281 117.460938 -6.476562 121.890625 -0.46875 L 121.890625 0 L 93.671875 0 L 81.8125 -27.03125 L 31.296875 -27.03125 L 21.109375 0 L -4.75 0 L -4.75 -0.46875 C -0.15625 -6.476562 3.597656 -12.722656 6.515625 -19.203125 C 9.441406 -25.691406 12.015625 -31.78125 14.234375 -37.46875 Z M 54.78125 -88.921875 L 37.46875 -42.6875 L 75.171875 -42.6875 L 55.25 -88.921875 Z M 54.78125 -88.921875 "/></g></g></g><g fill="#bd2d2d" fill-opacity="1"><g transform="translate(501.906352, 141.19408)"><g><path d="M 29.171875 0.71875 L 11.140625 0 L 11.140625 -0.46875 C 11.140625 -0.46875 11.613281 -1.257812 12.5625 -2.84375 C 13.507812 -4.425781 14.414062 -6.363281 15.28125 -8.65625 C 16.15625 -10.945312 16.59375 -13.117188 16.59375 -15.171875 L 16.59375 -119.28125 C 16.59375 -122.445312 16 -124.976562 14.8125 -126.875 C 13.632812 -128.769531 12.453125 -130.148438 11.265625 -131.015625 C 10.078125 -131.890625 9.484375 -132.328125 9.484375 -132.328125 L 9.484375 -132.796875 L 36.75 -133.515625 C 46.71875 -133.828125 55.648438 -132.164062 63.546875 -128.53125 C 71.453125 -124.894531 78.171875 -119.953125 83.703125 -113.703125 C 89.242188 -107.460938 93.472656 -100.425781 96.390625 -92.59375 C 99.316406 -84.769531 100.78125 -76.75 100.78125 -68.53125 C 100.78125 -60.625 99.472656 -52.484375 96.859375 -44.109375 C 94.253906 -35.734375 90.109375 -28.066406 84.421875 -21.109375 C 78.734375 -14.148438 71.34375 -8.65625 62.25 -4.625 C 53.15625 -0.59375 42.128906 1.1875 29.171875 0.71875 Z M 40.546875 -113.828125 C 39.921875 -113.828125 39.25 -113.785156 38.53125 -113.703125 C 37.820312 -113.628906 37.148438 -113.59375 36.515625 -113.59375 L 36.515625 -19.6875 C 37.941406 -19.53125 39.40625 -19.453125 40.90625 -19.453125 C 42.40625 -19.453125 43.945312 -19.453125 45.53125 -19.453125 C 48.375 -19.453125 51.648438 -20.238281 55.359375 -21.8125 C 59.078125 -23.394531 62.675781 -25.960938 66.15625 -29.515625 C 69.632812 -33.078125 72.476562 -37.859375 74.6875 -43.859375 C 76.90625 -49.867188 78.015625 -57.382812 78.015625 -66.40625 C 78.015625 -74.78125 76.472656 -82.5625 73.390625 -89.75 C 70.304688 -96.945312 65.957031 -102.757812 60.34375 -107.1875 C 54.738281 -111.613281 48.140625 -113.828125 40.546875 -113.828125 Z M 40.546875 -113.828125 "/></g></g></g><g fill="#bd2d2d" fill-opacity="1"><g transform="translate(608.616917, 141.19408)"><g><path d="M 36.046875 0 L 11.140625 0 L 11.140625 -0.46875 C 11.140625 -0.46875 11.613281 -1.257812 12.5625 -2.84375 C 13.507812 -4.425781 14.414062 -6.363281 15.28125 -8.65625 C 16.15625 -10.945312 16.59375 -13.117188 16.59375 -15.171875 L 16.59375 -119.28125 C 16.59375 -122.445312 16 -124.976562 14.8125 -126.875 C 13.632812 -128.769531 12.453125 -130.148438 11.265625 -131.015625 C 10.078125 -131.890625 9.484375 -132.328125 9.484375 -132.328125 L 9.484375 -133.03125 L 38.890625 -132.796875 C 46.316406 -133.109375 53.625 -131.878906 60.8125 -129.109375 C 68.007812 -126.347656 73.941406 -122.082031 78.609375 -116.3125 C 83.273438 -110.539062 85.609375 -103.070312 85.609375 -93.90625 C 85.609375 -86.15625 83.035156 -78.765625 77.890625 -71.734375 C 72.753906 -64.703125 66.15625 -59.601562 58.09375 -56.4375 L 58.09375 -55.96875 L 78.25 -33.671875 C 83.15625 -28.296875 86.675781 -24.773438 88.8125 -23.109375 C 90.945312 -21.453125 92.566406 -20.625 93.671875 -20.625 C 97.460938 -20.625 100.738281 -19.832031 103.5 -18.25 C 106.269531 -16.675781 107.65625 -13.910156 107.65625 -9.953125 C 107.65625 -6.484375 106.390625 -3.484375 103.859375 -0.953125 C 101.335938 1.578125 98.257812 2.84375 94.625 2.84375 C 88.925781 2.84375 83.390625 0.515625 78.015625 -4.140625 C 72.640625 -8.804688 67.976562 -13.828125 64.03125 -19.203125 L 38.65625 -53.59375 L 36.046875 -53.125 Z M 45.296875 -116.203125 C 44.347656 -116.203125 43.003906 -116.160156 41.265625 -116.078125 C 39.523438 -116.003906 37.785156 -115.882812 36.046875 -115.71875 L 36.046875 -71.609375 C 37.460938 -70.660156 39.039062 -69.988281 40.78125 -69.59375 C 42.519531 -69.207031 44.257812 -69.015625 46 -69.015625 C 52.488281 -69.015625 57.351562 -71.421875 60.59375 -76.234375 C 63.832031 -81.054688 65.453125 -86.15625 65.453125 -91.53125 C 65.453125 -94.851562 64.816406 -98.410156 63.546875 -102.203125 C 62.285156 -106.003906 60.191406 -109.285156 57.265625 -112.046875 C 54.335938 -114.816406 50.347656 -116.203125 45.296875 -116.203125 Z M 45.296875 -116.203125 "/></g></g></g><g fill="#bd2d2d" fill-opacity="1"><g transform="translate(717.461668, 141.19408)"><g><path d="M 41.734375 -0.46875 L 41.734375 0 L 11.140625 0 L 11.140625 -0.46875 C 11.140625 -0.46875 11.613281 -1.257812 12.5625 -2.84375 C 13.507812 -4.425781 14.414062 -6.363281 15.28125 -8.65625 C 16.15625 -10.945312 16.59375 -13.117188 16.59375 -15.171875 L 16.59375 -119.28125 C 16.59375 -122.445312 16 -124.976562 14.8125 -126.875 C 13.632812 -128.769531 12.453125 -130.148438 11.265625 -131.015625 C 10.078125 -131.890625 9.484375 -132.328125 9.484375 -132.328125 L 9.484375 -132.796875 L 43.390625 -132.796875 L 43.390625 -132.328125 C 43.390625 -132.328125 42.796875 -131.890625 41.609375 -131.015625 C 40.429688 -130.148438 39.25 -128.769531 38.0625 -126.875 C 36.875 -124.976562 36.28125 -122.445312 36.28125 -119.28125 L 36.28125 -15.171875 C 36.28125 -13.117188 36.753906 -10.945312 37.703125 -8.65625 C 38.648438 -6.363281 39.554688 -4.425781 40.421875 -2.84375 C 41.296875 -1.257812 41.734375 -0.46875 41.734375 -0.46875 Z M 41.734375 -0.46875 "/></g></g></g><g fill="#bd2d2d" fill-opacity="1"><g transform="translate(770.342708, 141.19408)"><g><path d="M 14.234375 -37.46875 L 44.34375 -113.828125 C 44.34375 -113.828125 44.738281 -114.851562 45.53125 -116.90625 C 46.320312 -118.96875 47.226562 -121.34375 48.25 -124.03125 C 49.28125 -126.71875 50.226562 -129.085938 51.09375 -131.140625 C 51.96875 -133.191406 52.40625 -134.21875 52.40625 -134.21875 C 52.882812 -134.539062 53.359375 -134.859375 53.828125 -135.171875 C 54.304688 -135.484375 54.859375 -135.640625 55.484375 -135.640625 C 56.429688 -135.640625 57.539062 -134.296875 58.8125 -131.609375 L 99.125 -41.03125 C 101.8125 -35.019531 105.171875 -28.257812 109.203125 -20.75 C 113.234375 -13.238281 117.460938 -6.476562 121.890625 -0.46875 L 121.890625 0 L 93.671875 0 L 81.8125 -27.03125 L 31.296875 -27.03125 L 21.109375 0 L -4.75 0 L -4.75 -0.46875 C -0.15625 -6.476562 3.597656 -12.722656 6.515625 -19.203125 C 9.441406 -25.691406 12.015625 -31.78125 14.234375 -37.46875 Z M 54.78125 -88.921875 L 37.46875 -42.6875 L 75.171875 -42.6875 L 55.25 -88.921875 Z M 54.78125 -88.921875 "/></g></g></g><g fill="#bd2d2d" fill-opacity="1"><g transform="translate(873.259053, 141.19408)"><g><path d="M 84.1875 -132.796875 L 93.90625 -115.71875 C 94.539062 -114.769531 94.972656 -113.820312 95.203125 -112.875 C 95.441406 -111.925781 95.5625 -111.132812 95.5625 -110.5 C 95.5625 -109.394531 95.164062 -108.722656 94.375 -108.484375 C 93.59375 -108.253906 92.882812 -107.976562 92.25 -107.65625 C 88.925781 -111.132812 84.5 -113.582031 78.96875 -115 C 73.4375 -116.425781 68.378906 -117.140625 63.796875 -117.140625 L 58.8125 -117.140625 L 58.8125 -13.515625 C 58.8125 -10.359375 59.40625 -7.828125 60.59375 -5.921875 C 61.78125 -4.023438 62.960938 -2.640625 64.140625 -1.765625 C 65.328125 -0.898438 65.921875 -0.46875 65.921875 -0.46875 L 65.921875 0 L 32.015625 0 L 32.015625 -0.46875 C 32.015625 -0.46875 32.609375 -0.898438 33.796875 -1.765625 C 34.984375 -2.640625 36.164062 -4.023438 37.34375 -5.921875 C 38.53125 -7.828125 39.125 -10.359375 39.125 -13.515625 L 39.125 -117.140625 L 34.140625 -117.140625 C 29.722656 -117.140625 24.707031 -116.425781 19.09375 -115 C 13.476562 -113.582031 9.007812 -111.132812 5.6875 -107.65625 C 5.0625 -107.976562 4.351562 -108.253906 3.5625 -108.484375 C 2.769531 -108.722656 2.375 -109.394531 2.375 -110.5 C 2.375 -111.132812 2.488281 -111.925781 2.71875 -112.875 C 2.957031 -113.820312 3.394531 -114.769531 4.03125 -115.71875 L 13.75 -132.796875 Z M 84.1875 -132.796875 "/></g></g></g><g fill="#bd2d2d" fill-opacity="1"><g transform="translate(971.195662, 141.19408)"><g><path d="M 41.734375 -0.46875 L 41.734375 0 L 11.140625 0 L 11.140625 -0.46875 C 11.140625 -0.46875 11.613281 -1.257812 12.5625 -2.84375 C 13.507812 -4.425781 14.414062 -6.363281 15.28125 -8.65625 C 16.15625 -10.945312 16.59375 -13.117188 16.59375 -15.171875 L 16.59375 -119.28125 C 16.59375 -122.445312 16 -124.976562 14.8125 -126.875 C 13.632812 -128.769531 12.453125 -130.148438 11.265625 -131.015625 C 10.078125 -131.890625 9.484375 -132.328125 9.484375 -132.328125 L 9.484375 -132.796875 L 43.390625 -132.796875 L 43.390625 -132.328125 C 43.390625 -132.328125 42.796875 -131.890625 41.609375 -131.015625 C 40.429688 -130.148438 39.25 -128.769531 38.0625 -126.875 C 36.875 -124.976562 36.28125 -122.445312 36.28125 -119.28125 L 36.28125 -15.171875 C 36.28125 -13.117188 36.753906 -10.945312 37.703125 -8.65625 C 38.648438 -6.363281 39.554688 -4.425781 40.421875 -2.84375 C 41.296875 -1.257812 41.734375 -0.46875 41.734375 -0.46875 Z M 41.734375 -0.46875 "/></g></g></g><g fill="#bd2d2d" fill-opacity="1"><g transform="translate(1024.076702, 141.19408)"><g><path d="M 4.75 -66.40625 C 4.75 -76.832031 6.25 -85.921875 9.25 -93.671875 C 12.25 -101.421875 16.28125 -107.984375 21.34375 -113.359375 C 26.40625 -118.734375 31.898438 -123.078125 37.828125 -126.390625 C 43.753906 -129.710938 49.640625 -132.125 55.484375 -133.625 C 61.335938 -135.125 66.632812 -135.875 71.375 -135.875 C 78.644531 -135.875 84.726562 -135.359375 89.625 -134.328125 C 94.53125 -133.304688 97.066406 -132.796875 97.234375 -132.796875 L 94.375 -110.984375 L 93.90625 -110.984375 C 90.113281 -113.671875 86.597656 -115.523438 83.359375 -116.546875 C 80.117188 -117.578125 76.441406 -118.09375 72.328125 -118.09375 C 63.316406 -118.09375 55.925781 -116.429688 50.15625 -113.109375 C 44.382812 -109.796875 39.835938 -105.488281 36.515625 -100.1875 C 33.203125 -94.894531 30.910156 -89.242188 29.640625 -83.234375 C 28.378906 -77.222656 27.75 -71.613281 27.75 -66.40625 C 27.75 -61.1875 28.378906 -55.570312 29.640625 -49.5625 C 30.910156 -43.550781 33.203125 -37.9375 36.515625 -32.71875 C 39.835938 -27.507812 44.382812 -23.242188 50.15625 -19.921875 C 55.925781 -16.597656 63.316406 -14.9375 72.328125 -14.9375 C 76.441406 -14.9375 80.117188 -15.488281 83.359375 -16.59375 C 86.597656 -17.707031 90.113281 -19.523438 93.90625 -22.046875 L 94.375 -22.046875 L 97.234375 -0.234375 C 97.066406 -0.234375 94.53125 0.273438 89.625 1.296875 C 84.726562 2.328125 78.644531 2.84375 71.375 2.84375 C 66.632812 2.84375 61.335938 2.09375 55.484375 0.59375 C 49.640625 -0.90625 43.753906 -3.273438 37.828125 -6.515625 C 31.898438 -9.753906 26.40625 -14.0625 21.34375 -19.4375 C 16.28125 -24.820312 12.25 -31.382812 9.25 -39.125 C 6.25 -46.875 4.75 -55.96875 4.75 -66.40625 Z M 4.75 -66.40625 "/></g></g></g></svg>